<svg width="640" height="180" viewBox="0 0 640 180" fill="none" xmlns="http://www.w3.org/2000/svg">
  <rect width="640" height="180" rx="28" fill="#FDFCF0"/>
  <rect x="18" y="18" width="604" height="144" rx="22" fill="url(#bg)" fill-opacity="0.14" stroke="#064E3B" stroke-opacity="0.12"/>
  <circle cx="92" cy="90" r="46" fill="#064E3B"/>
  <path d="M92 52C76.3 52 63 64.8 63 80.8C63 96.8 76.2 109.6 92 109.6C100 109.6 107.3 106.4 112.6 101.2C107.8 103.1 103.3 104 98 104C82.2 104 69.3 91.2 69.3 75.2C69.3 65 74.5 56 82.5 51.1C79.6 51.7 95 52 92 52Z" fill="#FDFCF0"/>
  <path d="M82 75C85.2 72.7 89 71.5 93 71.5C99.8 71.5 106 75.2 109.2 81L101.9 83C100 79.9 96.7 78 93 78C90.7 78 88.5 78.7 86.8 80L82 75Z" fill="#D1FAE5"/>
  <path d="M69 104C69 92.4 78.4 83 90 83H114C125.6 83 135 92.4 135 104V107C135 110.3 132.3 113 129 113H75C71.7 113 69 110.3 69 107V104Z" fill="#D1FAE5"/>
  <path d="M81 85.5H123V113H81V85.5Z" fill="#A7F3D0" fill-opacity="0.65"/>
  <path d="M197 63.5H211.4L236.2 107.8L261.2 63.5H275.6V125H263.6V85.2L241.1 124.5H231L209 85.2V125H197V63.5Z" fill="#064E3B"/>
  <path d="M291.9 63.5H304.6V125H291.9V63.5Z" fill="#064E3B"/>
  <path d="M321.7 63.5H335L366.5 105.4V63.5H379.1V125H367.2L334.3 81.5V125H321.7V63.5Z" fill="#064E3B"/>
  <path d="M396.3 63.5H409V125H396.3V63.5Z" fill="#064E3B"/>
  <path d="M426.1 63.5H439.4L470.9 105.4V63.5H483.5V125H471.6L438.7 81.5V125H426.1V63.5Z" fill="#064E3B"/>
  <path d="M519.1 126.4C510.1 126.4 502.1 124.4 495.2 120.3C488.4 116.1 483.1 110.4 479.4 103C475.6 95.7 473.8 87.5 473.8 78.5C473.8 69.5 475.7 61.4 479.5 54.1C483.4 46.8 488.8 41 495.8 36.9C502.8 32.7 510.7 30.6 519.8 30.6C525.4 30.6 530.8 31.4 536 33C541.2 34.6 545.6 36.8 549.1 39.8L544.5 49.2C540.5 46.5 536.4 44.5 532.3 43.2C528.3 41.9 524.2 41.2 520 41.2C510.6 41.2 503.2 44.5 497.7 51.2C492.2 57.9 489.5 67 489.5 78.5C489.5 90.2 492.1 99.4 497.4 106.1C502.8 112.7 510.6 116 520.8 116C526.8 116 532.6 114.7 538.1 112.2V89.8H518V79.9H549.4V118.6C545.4 121.1 540.5 123.1 534.8 124.6C529 125.8 523.8 126.4 519.1 126.4Z" fill="#064E3B"/>
  <text x="196" y="145" fill="#065F46" font-family="Inter, Arial, sans-serif" font-size="19" font-weight="500" letter-spacing="0.08em">Quran memorization companion</text>
  <defs>
    <linearGradient id="bg" x1="18" y1="18" x2="622" y2="162" gradientUnits="userSpaceOnUse">
      <stop stop-color="#10B981"/>
      <stop offset="1" stop-color="#047857"/>
    </linearGradient>
  </defs>
</svg>
